# xmcd
#
# Track frame offsets: 
#        150
#        2692
#        21779
#        40801
#        61300
#        80727
#        102479
#        104861
#        122776
#        141095
#        159137
#        174874
#        192874
#        209303
#        229092
#        248444
#
# Disc length: 3580 seconds
#
# Revision: 0
# Processed by: cddbd v1.5.2PL0 Copyright (c) Steve Scherf et al.
# Submitted via: ExactAudioCopy v1.0b3
#
DISCID=cd0dfa10
DTITLE=庾澄庆 - 哈林音乐频道
DYEAR=1999
DGENRE=Pop
TTITLE0=哈TV JINGLE(Quick Version)
TTITLE1=YES, I'M READY
TTITLE2=STORMY
TTITLE3=Y.M.C.A.
TTITLE4=IS IT YOU
TTITLE5=YOU MAKE ME FEEL LIKE DANCING
TTITLE6=哈TV JINGLE(Slow Version)
TTITLE7=WHEN YOU'RE IN LOVE WITH A BEAUTIFUL WOMAN
TTITLE8=SWEET BABY
TTITLE9=MIDNIGHT LIGHT
TTITLE10=LET ME LOVE YOU TONIGHT
TTITLE11=WILDFIRE
TTITLE12=I JUST WANNA STOP
TTITLE13=让我一次爱个够
TTITLE14=想念你
TTITLE15=热情的沙漠
EXTD=
EXTT0=
EXTT1=
EXTT2=
EXTT3=
EXTT4=
EXTT5=
EXTT6=
EXTT7=
EXTT8=
EXTT9=
EXTT10=
EXTT11=
EXTT12=
EXTT13=
EXTT14=
EXTT15=
PLAYORDER=
